<mxfile host="Electron" agent="Mozilla/5.0 (X11; Linux x86_64) AppleWebKit/537.36 (KHTML, like Gecko) draw.io/24.7.17 Chrome/128.0.6613.36 Electron/32.0.1 Safari/537.36" version="24.7.17">
  <diagram name="Page-1" id="-iYxys-qZHivKRTxRQhH">
    <mxGraphModel dx="1430" dy="830" grid="1" gridSize="10" guides="1" tooltips="1" connect="1" arrows="1" fold="1" page="1" pageScale="1" pageWidth="850" pageHeight="1100" background="#1e2129" math="0" shadow="0">
      <root>
        <mxCell id="0" />
        <mxCell id="1" parent="0" />
        <mxCell id="b66CwS1TbO1OavZcbPs1-2" value="" style="rounded=0;whiteSpace=wrap;html=1;" parent="1" vertex="1">
          <mxGeometry x="390" y="370" width="400" height="170" as="geometry" />
        </mxCell>
        <mxCell id="ZmxOSKaFQAJhcJr6SPo7-6" value="Me" style="shape=umlActor;verticalLabelPosition=bottom;verticalAlign=top;html=1;outlineConnect=0;" parent="1" vertex="1">
          <mxGeometry x="250" y="445.5" width="30" height="60" as="geometry" />
        </mxCell>
        <mxCell id="48x9F1mXmifq3sj9QLIl-4" value="&lt;b&gt;VPS&lt;/b&gt;" style="text;html=1;align=center;verticalAlign=middle;resizable=0;points=[];autosize=1;strokeColor=none;fillColor=none;" parent="1" vertex="1">
          <mxGeometry x="746" y="370" width="50" height="30" as="geometry" />
        </mxCell>
        <mxCell id="48x9F1mXmifq3sj9QLIl-5" value="" style="endArrow=none;dashed=1;html=1;rounded=0;" parent="1" source="hKZwHurb_H9dG61XrNo1-1" edge="1">
          <mxGeometry width="50" height="50" relative="1" as="geometry">
            <mxPoint x="340.52" y="543" as="sourcePoint" />
            <mxPoint x="341" y="410" as="targetPoint" />
          </mxGeometry>
        </mxCell>
        <mxCell id="48x9F1mXmifq3sj9QLIl-10" value="" style="endArrow=none;dashed=1;html=1;rounded=0;entryX=0.5;entryY=1;entryDx=0;entryDy=0;" parent="1" edge="1">
          <mxGeometry width="50" height="50" relative="1" as="geometry">
            <mxPoint x="340.33" y="536" as="sourcePoint" />
            <mxPoint x="340.33" y="507" as="targetPoint" />
          </mxGeometry>
        </mxCell>
        <mxCell id="ZmxOSKaFQAJhcJr6SPo7-5" value="&lt;b&gt;SSH&lt;/b&gt;" style="text;html=1;align=center;verticalAlign=middle;whiteSpace=wrap;rounded=0;labelBackgroundColor=#1E2129;" parent="1" vertex="1">
          <mxGeometry x="310" y="490.5" width="60.5" height="15.5" as="geometry" />
        </mxCell>
        <mxCell id="48x9F1mXmifq3sj9QLIl-27" value="&lt;i style=&quot;font-size: 10px;&quot;&gt;outside&lt;/i&gt;" style="text;html=1;align=center;verticalAlign=middle;whiteSpace=wrap;rounded=0;fontSize=10;" parent="1" vertex="1">
          <mxGeometry x="290" y="403" width="60.5" height="30" as="geometry" />
        </mxCell>
        <mxCell id="48x9F1mXmifq3sj9QLIl-28" value="&lt;i style=&quot;font-size: 10px;&quot;&gt;inside&lt;/i&gt;" style="text;html=1;align=center;verticalAlign=middle;whiteSpace=wrap;rounded=0;fontSize=10;" parent="1" vertex="1">
          <mxGeometry x="329" y="403" width="60.5" height="30" as="geometry" />
        </mxCell>
        <mxCell id="48x9F1mXmifq3sj9QLIl-21" value="" style="endArrow=classic;html=1;rounded=0;" parent="1" edge="1">
          <mxGeometry width="50" height="50" relative="1" as="geometry">
            <mxPoint x="390" y="470" as="sourcePoint" />
            <mxPoint x="290" y="470" as="targetPoint" />
          </mxGeometry>
        </mxCell>
        <mxCell id="b66CwS1TbO1OavZcbPs1-16" value="" style="endArrow=classic;html=1;rounded=0;entryX=0;entryY=0.659;entryDx=0;entryDy=0;entryPerimeter=0;" parent="1" edge="1" target="b66CwS1TbO1OavZcbPs1-2">
          <mxGeometry width="50" height="50" relative="1" as="geometry">
            <mxPoint x="293" y="482" as="sourcePoint" />
            <mxPoint x="427" y="482" as="targetPoint" />
          </mxGeometry>
        </mxCell>
        <mxCell id="hKZwHurb_H9dG61XrNo1-3" value="" style="endArrow=none;dashed=1;html=1;rounded=0;" edge="1" parent="1" source="ZmxOSKaFQAJhcJr6SPo7-5" target="hKZwHurb_H9dG61XrNo1-1">
          <mxGeometry width="50" height="50" relative="1" as="geometry">
            <mxPoint x="340" y="491" as="sourcePoint" />
            <mxPoint x="341" y="410" as="targetPoint" />
          </mxGeometry>
        </mxCell>
        <mxCell id="hKZwHurb_H9dG61XrNo1-1" value="" style="shape=image;verticalLabelPosition=bottom;labelBackgroundColor=default;verticalAlign=top;aspect=fixed;imageAspect=0;image=data:image/png,iVBORw0KGgoAAAANSUhEUgAAAlgAAAJYCAMAAACJuGjuAAAABGdBTUEAALGPC/xhBQAAACBjSFJNAAB6JgAAgIQAAPoAAACA6AAAdTAAAOpgAAA6mAAAF3CculE8AAAC8VBMVEUyMzA0NTJJSkhiY2Fyc3F2d3WEhYOIiYeSkpGampmfoJ6YmZePkI5/gH5wcW9gYV5QUU44OTY5OjdTVFFpaWd7fHqNjYyfn56TlJKKi4l6e3lrbGpZWlhISUaZmZi0tbTNzc3l5eX8/Pz////r6+vQ0dC3t7Zub21KS0g1NjNXWFWBgYCkpaO9vbzV1dXu7u76+vrh4eHIyMerrKuGh4U+Pzw7PDlsbWqWl5XBwcDx8fHExcRnaGY8PTqmpqXQ0M/39/fi4uKGhoRWV1VLTEm7u7r19fX9/f3W1tZbXFn+/v7w8PBJSUdBQj9kZWJhYmBfYF1DREFRUlCdnZzb29rq6uqoqadtbWuztLPU1dSQkY9NTUvx8fAzNDF9fXvo6OdAQT+wsa/19fRFRkP7+/uHiIby8vLU1NOFhYQ8PTtycnD5+fm4ubiDhIKgoZ/d3d2np6ZMTUrX19aLjIo6OzitraxSU1C6urlzdHLa2to/QD1ERUKysrG8vbzY2diCgoCvr67Jycnt7e1+fnyVlZRERUPGxsXOzs1UVVLMzcxdXlzn5+f4+Pjg4eBeX13Kysk9Pju+vr12dnRCQ0A3ODVGR0T09PR0dXM2NzS3uLdHSEVPUE2cnZvp6elZWVfs7Oy/wL/29vZxcW95eXe/v758fXvk5OPCwsGjpKJjZGKrq6ptbmzY2Nd4eXfj4+NlZmS1tbRvcG7c3dySk5FNTkxVVlTExMNdXVuvsK+zs7KxsbClpaTv7+/c3NtRUU+2trXAwcDT09JoaWZVVVOenp3m5ubg4N/f39+5ubibnJphYV9mZ2Xk5eROT0ynqKfZ2dnHx8bo6eh3eHaOj41AQT7MzMt6eniKiohYWVbS0tKhoaCOjo2AgX+MjYvz8/OXmJZlZWOjo6Kqqqmsravt7ezIycjPz87FxcVaW1lcXVqWlpXe3t6urq2RkZCpqaiioqHR0dGJiYjLy8pqa2l1dXO7vLvDw8Kbm5ppamh+f32UlZOeCzNXAAAAAWJLR0QjKmJsOgAAAAd0SU1FB+gGHgIEC/l/LqEAABQgSURBVHja7d15fBXVwcbxe1niNUIkgYAaSCQDQlAhqMSwQyVcuMgqqyE1QIxgsAZMWFU0CC6sQoC8YmTVgCgqa0VAlIK4IKK1CK244Far1tb3rbZ/vX2p7UfIcs85c86Zwff3/ZvMfeaeh3vnnpk5EwgAAAAAAAAAAAAAAAAAAAAAAAAAAAAAAAAAAAAAAAAAAAAAAAAAAAAAAAAAAAAAAAAAAAAAAAAAAAAAAAAAAAAAAAAAAAAAAAAAAAAAAAAAAAAAAAAAAAAAAAAAAAAAAAAAAAAAAAAAAAAAAAAAAAAAAAAAAAAAAAAAAAAAAAAAAAAAAAAAAAAAAAAAAAAAAAAAAAAAAAAAAAAAAAAAAAAAAAAAAAAAAAAAAAAAAAAAAAAAAAAAAAAAAAAAAAAAAAAAAAAAAAAAAAAAAAAAAAAAAAAAAAAAAAAAAAAAAAAAAAAAAAAAAAAAAAAAAAAAAAAAAAAAAAAAAAAAAAAAAAAAAAAAAAAAAAAAAAAAAAAAAAAAAAAAAAAAAAAAAAAAAAAAAAAAAAAAAAAAAAAAAAAAAAAAAAAAAAAAAAAAAAD4TbBW7Tp1Y84LnR8be0GoXv24CxvEexsooWGjuokxjUNNYmMvCl18SVLTZkFG6ZzSrE5yyqXNU51KWrS87KJWra3nSWtz+RVXtm1XOU96+6uuvqZ2B0bM/zKuzezYwqlZp86ZXbraCtQ6sVv3HlEC9Uz5xXV8ePlYr5is3o6YcJ/kvsbHMtg3uU9EMFC/rJjrdbxm/wGNajYwQ8//4EFRXmfA4J9Jq4bcMNSRM2z4AIPdCo4Y2U4uT2TUjdluD+OuTo36MqOTNOzdJZ2ivk5qZs6536qEX14acRS06HadoW/A5JtU8jhtL85187JjRF5j7DjXu9c3T+SFbj7Xa9VweL6j7JbxE7R/WN3aOaycp2BiI+X/6cECoZe4zfUe/krodW4/x2uVoj6K//ofXDhJZ56cuMnu8jjt7yhSe+kOYtu/wPU+Fgu9Tu9zuVZTLnNZq9OHA1PbaKvVtOnu8zjtLphBsbw0804NtTp94HyXnmrVvltPHic/eQbF8krOrNGONpGJ7r8Qc++J6AuUf2M8xfJEg3sdrdILXc6B1y3RG+im2TkUy7rgfemObiWJLgLNmas9j3P/AxTLsv6dHRMenKJ8dDXMRJ68wgyKZdND8xwz5jdWmkXKqZdqKNCChRTLnpvTHWMW1ZLPs/hhc3lSk9MolqVfg00ck/KXyAZa2sdooFuyKZaVXnVzDCsulQq0bKjhPMtXUCzzyv7LMa77IxKBVjY3nifyaJBime5VR8eC8seEAzVcZSPQ6gyKZdbVjhVr1grmGdzTTqDptSiWSZmOJeHxQnky2toKdNMUimXOuoitcXQi9UTm/9dby+OUPEaxTBmQ7liUHD1Qoc08nQZRLDNmzHOsejxaoLV28/QbR7GMmGh3HJ0nop13LrEc6AaKZUKiY1vNlwjnVNjOs5piGdA63/Y4Dqs50HjrRd9AsQxYbX0c69f8RTjWdp5OyyiWfhut9yql5kBP2s4T3sSvQgOnnlvaHsenEmoMNCTPdqCLmMcy4Gnbw9gvys0V620HWp1DsQyce95seRhTn6k50EDbvbo9+h3bFEvebNvjeEeUQJ0t5xnbkJPQJqjfCBrupPJXz0bJ84D6ScuCNSp78VyAYpk4SSg/Elvu3LpiYevTB+AJudu2J53XbccC4fumoxy4q1y90+PBwpuTrht3+oq9DuO27Vyy9deXis/cC5WBYkl7XvLAe9eKKu9Qz137wmSRcu2Odld0guRk7Z5HB1V5S8Te214sF/n7fVxBasQEqW+Ply6p6eb03Jj7o32NhV+OFugSmTx5zz9U07b2/+ZAtC0cXBygWF7PNbwSF3VzvS6q+Tdm9CuxZM4CHFoZdY5uY/EatwfuFEvFIeFRjPxKaCmN4NNPVb+NiVEnjDLmCwcqiRPaw6XnV7/ASaROgGKZmcRaLjqMa1YIbzTp/mq2MT36fQu3CvfqbuHVv7s2rm6551cDFMuM10SHcf7rMpuNe6PKM72Ho//lm6KBjuRK5ClKrnKpx7eCFMuQ+0S/B1fIbTchs/IS7GGRRYX3CAY6Krkm9eF9lbfRU3wFNoolaYfgOA6X3nKtudJnev9phuDsaLi2dKBNZ88+9N4eoFimCN4SWqKwcFpOzJnPHFgvsthMF8Gi71LY1w5nDlrk7QDFMqWZ4Di+o7T1lT+9HmeL0LNQ6gmex1Z7bM/b/X6yjdgAxTJG8AOix2/VNh989D/fbPkNhP7iHrFADyvu7yPdFQ7cKZY8wWvL9ym/QKsfT9CEW4n9+3fFAv1ONU9a7I9bOLA0QLHMEVwO65j6K+z918+8TMF/fkAskIvHFD1++ufqmvcCFMugXWLv1wAXL9H1zrCzJiT6r8Xm3cvd7PN7Qx1n88IAxTJJ8Pa9Za5eZGZT4WVkJ4jleddVnpwG+6VXQ6VYcrqLvV8JtvK0Fsuz3vobRbHkiK0UFLH2eLwGYuM3kWL5nOAJlAm28mwXy1NBsXxOcO3YbFt59ovlOU6xfO4lsffrVlt5ssXy9A5SLH8TfBjTCVt5BgueYmpKsfxtn9j7Nc/W0XuRYLGaUCx/E13YvZWlPDmCd5GtKqJYvjZc9GZAWwc1/QQDbaVYvvZ70QuBQ5YCjRLMU7CdYvmZ8BKy6QPsBBJeC3X6YorlY/tFx9HJf89KoEeFA92bQLH8K0F8AY78jTYC/UH8btXj/SmWfy0QH8iC8Rby9JW4D/rgdRTLt8ZIDKSTtcx4njSZZW17vJ9GsXzqcpliOSfvMD7tcJVUoCMXUix/auDIafua4UAfyOUJXz2HYvnSMMlmOXPNfkh8KJunx0dzKJYPDXccX1UrKP8QHRvVoliyajsK+sw2d9T8sUKe9JQ2FMtnctSeJ9ciOddQoAFKeZzudYMUy1euUBtIp/cpM58SwXLFQD3fyaVYPrI37KjqE2PitMoHynkKsgZSLP/o6Kj75IbW2vMMnu8i0Kj68RTLJ55x3Ah/Gqf78tJTrgKdLG7oXbE+i3XryM+nWIE+jjsL3p+hNc+UsLs84c6tgh4Vy5Zzo1hdXO9nQZbWqa1drgOVJw+mWN7boWFXdR7I63jAakFWI4rltSlaHjyZX6jtvtZMLe/+5JgMiuWtbnp2N7wvSc/BTVFzPYFGf7SSYnmp6KCuPd4c0nJd58CwpjzhT+umUSzv9NX3FOaCLB1X1nykbxCG6TiQp1iKXtW528d/6XqWMn6LxjwFKYMolkfS7tW64+2aNHMZqOFyrYEm1y+lWJ7I7al31/OydroLlBTWG+gTV9djUCxl28dq3vnI5+5mTbdqH40NMymWB5IKtO9/54dc5Mkp1p5nzYnBFMu+Oqn634GOQ9TzBJ81MCLnZ1As65aE9b8FecXqP/aDhwyMybCYIMWybV26gTdh9Hjl62pKLzMxKm2/oFjWL3RYbuJt6P6A8nHWCRN5Ugu7UizL/viJifeh4Evl8yqhiIlAT3ShWJY1O27knbhlm2qgfz8/TPNcSGEpxbIr/h4jb8Vy5SfBNdhiJFDblRTLslm9jbwZV6heUjPhWSN5Tl5LsSyb9JmRd+Mt5Uvjl/QzkSccoli2T0lnFph4O/6kfKDV7HMj43NPGsWybOVbJt6PVeprHcfdZCJQRTzFsixn9ioDb0iJ+hK5HYYbOOPkdE6gWLZ1PX+NgWn4x9QDNawwMESL4imWdY98laf9LWnh5lae1w1Mst0VpFj29SrUfhS/eaabQLXf1T5IpyiWJ1MP3XRfAHjc3QXxjebqPslzI8XyxIyvj+p9V75xGWj7GL0fo6kfUixvBOM+1fq2JLoNNDikdfLhk2UUyys7X9R4qdZY9/cnlyaO0jhO9wYplmfmhMq1vS8P6lhSq2+Kvt+s4ymWh0rravu1/wctgcYl79aUZ3kziuWpvil6pr9Hz9STJ372dD0jNVVPseZ3cqvg/2exAoFJf9Zy4d1X2gK9vE/LLSCvaykWa5C6+pTQcOVd3mF9gbbFdnIfqCXF8oHaWa4/JZ7XmWdCzJ9cNyuJYvnBkI9dXmYaHqI1T/C5T11OyI+iWP6wOMbdam3f6A60t9Dd1Ri1KZZfJuSnuTkjvDxDe6Dc0DwXgZ6lWD76RizsoTyQs8ycfFL+RiwYTLF8pL/yp8QoM4EeUz5F3Zhi+esbMe4WtYHMNhRocLLaTT3fUizfTT9UqHwB/cVYnoyYBSo/VOdQLN9puk9+IN8ymCctUWHpy/oUy4cWLpIdx/QJJvOUxUg/R/1KiuVL1+7ROtntWlFIchK3Xw7F8qWykNwVUl+aDjRJ8lP0MMXyqffulhnHfcbz5MRIfWito1h+FS+zMswwC4GmbJYItIFi+VbObyQGcpyFQEslHiD7V4rlYxvEB/JCG3n6i/+maE6xfCzYWXggn7YSqJfwRHxekGL52FLhgfzaTqDfCTe9FsXys2s8uyarmuO+S0UDDaRYflbaQnAc77IU6DvRYv03xfI10cdqdrb1U1X0xOFsiuVrDwmO47u2Al0hGGg8xfL3D0PBew9H2QrUyu21fhTLHwTvxd9jK0+2YLHuo1j+liI2DgusfYQKrpWTTLH8bbjYOAy1Fkhwau0iimVg9qnP7Sm9NG2ridg4tK1pGzNOte+ztUxToANigX5Pscz8cOo3QM/GNrj/VZh7+//9iwdz9QQSnFmLoVi6Hfvx5rpELVv7Smwc/qeGSdYfb4Y9qGf1EMHLslZQLM1G/Hvdq0iyjtX25oqNw8fVT2mO/M/1whs15Pmt4K/CjRRLr6Y/+R/9fKn77b3h9trkD35yh3Jd93kGub02mWIpuf6M5UW7t3a7vXGCtxlW+3DMxJ9uINIkzW2g98XypJZRLJ0mHDkzdqdpLjf4uOAHxEPV/P3Gs+6S/3aSy0B/E8vzRIBi6Zw9rHyzaUqRqy3uELz1uJqHyW9rd/a/VH/w72n9BZdzWE2xdPq4iuTTG7rYYGvB9f56VlOD9lX821Nuql5P8BP0e4qlUeMqoxckqz/yZpfgOGZV+dfxVT84+I1N6l/1JYKBplEsfepU9/HS8wfFLf5RdIHSY1VONFxW7WWBzRQDnRDME5lJsbT5oob1FStqqWyx6BXR6zXbVPXn31f/73uElH4e1hYt+pYAxdKldY3nOk5+sFj+p8DDor0qqeqemL/XOFMxtI789O024WcQv0mxdFkc7Z670fdJLgmTdqfwLTG7qvjz16Nd3/LUWslq9RK/Ffo7iqVJmsCz6ndv7SpznLxDeBirOlSeIvAogLatpA74WgjnWV5KsTR5UmgvThYLP3v+tfbivVpeeQJhqdhND6+Elop+L4ckFiRNCVAsPb4Wfs+7z04Q+dYZKfPAisrfhAnfiv7t/JEDRXYwSWrxmx8olh5LZGqQX5wU5eT0F/fILVf8YaWJhqkyf77ly/015yl7+zOpPEeDFEuLhfMdOflTb9tW3cYe+Mdkya1tqXQQ3kRyC86CwrXV/Wot++HJTyS3VuMycBRLWHaJo6B8/T/iGpwxmxQ8POLGh1vIb+maswPNUskTHjrmF8+cuRpSUdOnm1wq/1yDgjkUS4cZLp6XlXf0pY5ZxcXFz2bt6HNUcbn+3Wc/8aSRiwfxrjl4/10v/jPQ1Kx3t5QoPppiTIBiaVCm97n08kJnBWqY722ecAOKpcMuj3u1+6x51znNPQ50Z4BiaXCJx8NY6akUFR7nmV+LYunwV4/H8ZWzrgGe6XXRvw9QLB2OeDuMkZfPPsLyuFdPZFAsLYq9HcdKt32V9vM0TzjqfboUS8yczV6O4+bKnw/T8rwM9EKAYulqlodfhuEPqwjUar53gQ4mUCxtcl/ybByrfv7DM2O9ypM6KECx9Ol6lUfjuKiau0J3tvMo0M0BiqVT2jfeHGBVey1V9u2eBOoWoFiaxaTaH8bRe6vPM8GLadK5aRRLu+dO2h7G9Gdq/BB903qv9iwOUCz9Vj5l+QfhuiiB1lk+hH9D8A43iiUpvtBqrx6PGmjvdJuB5mUHKJYhifa+DtNFlvYo+sper9oLr2JDseQt22FpGHuMEAuUVG4p0OSZAYplUM6xHjaG8UBf0UD9s6z06kqJe3EplpLDn1v4Wd9fItC0m8zPt38tc0s1xVIUN8/sMEZig1J5ipLTzQba3UgqD8VStfijAoPDOPo56UBtjF6M2PL6AMWypFZx2NQwViitbNXI2MxDj1AwQLHs2bnIyDA2H6GYJ3jbUSOBOsqv+0Wx3Bmo/2xduLirep7S2T21B1o1WyEIxXJrYUetX4jhiQ3d5Sm7fIHeoz3ZBb8olra5h9hOukYxUtFUwzRbo4qIrkBjY2eohaBYWn4hXrxHy6fVlW00BZoyfLSOQJ2SZ6gmoFia7I91ez3nsNhsjXni47Lc3m7RJyZD/fWDYlddNHa9ozcIvU554NwVv3ak+ldi6upWQd2Bxp23SP3wb/cGl8d6QpfbFux1vZd9hfZxQ+CcVvbdqTcUBnH+365ZZibQ0ln7VK7XKv/q1ni3L51xKPrrLF+nYR+PRb+sN/zr+MA5b+XN66WObw48uSnBZJ60jd9/K/OlGD5+X9McLa/cpm4Um/preZ1JK6K8Tp1egZ+HnCn1Tx0ROHXX+/4XEvfaCBQ/8J0rRR7yXL46c0T/APz9tfjA298fOl71yn3hYS0Pnfj7/qDVQIsvvK1bxZ6qvxkLFty7KzNuGaN2Dh3SD6l96+X1msReXTxmzKnYV0PHYtYNyC7zMFBumy5vX/Nl7EfFxSOL34zNDI2fVWfnHMYJAAAAAAAAAAAAAAAAAAAAAAAAAAAAAAAAAAAAAAAAAAAAAAAAAFz4Xzq2BdHzCb0QAAAAJXRFWHRkYXRlOmNyZWF0ZQAyMDI0LTA2LTMwVDAyOjA0OjExKzAwOjAwnRG7fgAAACV0RVh0ZGF0ZTptb2RpZnkAMjAyNC0wNi0zMFQwMjowNDoxMSswMDowMOxMA8IAAAAASUVORK5CYII=;" vertex="1" parent="1">
          <mxGeometry x="327.75" y="463" width="25" height="25" as="geometry" />
        </mxCell>
      </root>
    </mxGraphModel>
  </diagram>
</mxfile>
